<?xml version="1.0" encoding="utf-8"?>
<!-- Generator: Adobe Illustrator 16.0.0, SVG Export Plug-In . SVG Version: 6.00 Build 0)  -->
<!DOCTYPE svg PUBLIC "-//W3C//DTD SVG 1.1//EN" "http://www.w3.org/Graphics/SVG/1.1/DTD/svg11.dtd">
<svg version="1.1" id="Layer_1" xmlns="http://www.w3.org/2000/svg" xmlns:xlink="http://www.w3.org/1999/xlink" x="0px" y="0px"
	 width="512.586px" height="665.572px" viewBox="0 0 512.586 665.572" enable-background="new 0 0 512.586 665.572"
	 xml:space="preserve">
<g>
	<rect y="219.229" width="512.586" height="236.354"/>
	<g>
		<g>
			<linearGradient id="SVGID_1_" gradientUnits="userSpaceOnUse" x1="30.7075" y1="83.0527" x2="164.7529" y2="83.0527">
				<stop  offset="0" style="stop-color:#64C08A"/>
				<stop  offset="0.5" style="stop-color:#00A550"/>
				<stop  offset="1" style="stop-color:#00914C"/>
			</linearGradient>
			<path fill="url(#SVGID_1_)" d="M164.753,122.658c0,15.142-12.276,27.418-27.418,27.418H58.126
				c-15.143,0-27.418-12.276-27.418-27.418V43.449c0-15.144,12.275-27.418,27.418-27.418h79.209
				c15.142,0,27.418,12.274,27.418,27.418V122.658z"/>
			<path fill="#FFFFFF" d="M69.225,39.499H65.57l-1.165-4.324h12.866l1.125,4.324h-4.512v14.673h-4.659V39.499z"/>
			<path fill="#FFFFFF" d="M76.428,61.498c1.544,0.892,2.762,2.097,3.655,3.614c0.901,1.535,1.352,3.204,1.352,5.007
				c0,1.813-0.451,3.477-1.352,4.994c-0.893,1.526-2.111,2.73-3.655,3.614c-1.535,0.884-3.209,1.325-5.021,1.325
				c-1.803,0-3.477-0.441-5.021-1.325c-1.553-0.893-2.776-2.098-3.668-3.614c-0.901-1.518-1.352-3.182-1.352-4.994
				c0-1.803,0.451-3.472,1.352-5.007c0.893-1.509,2.115-2.713,3.668-3.614c1.544-0.884,3.217-1.326,5.021-1.326
				C73.219,60.172,74.893,60.614,76.428,61.498z M68.716,65.3c-0.83,0.518-1.486,1.214-1.968,2.089
				c-0.482,0.865-0.723,1.775-0.723,2.73s0.245,1.865,0.736,2.731c0.491,0.884,1.142,1.584,1.955,2.102
				c0.821,0.526,1.718,0.79,2.691,0.79c0.964,0,1.856-0.264,2.677-0.79c0.813-0.518,1.468-1.218,1.968-2.102
				c0.482-0.875,0.723-1.785,0.723-2.731c0-0.955-0.241-1.865-0.723-2.73c-0.482-0.866-1.134-1.563-1.955-2.089
				c-0.839-0.526-1.736-0.79-2.691-0.79C70.434,64.51,69.537,64.773,68.716,65.3z"/>
			<path fill="#FFFFFF" d="M62.986,105.051V86.053h6.788c1.392,0,2.695,0.241,3.909,0.724c1.196,0.473,2.263,1.138,3.2,1.994
				c0.901,0.84,1.62,1.853,2.155,3.039c0.518,1.17,0.776,2.419,0.776,3.749s-0.259,2.57-0.776,3.722
				c-0.536,1.188-1.254,2.2-2.155,3.039c-0.919,0.856-1.99,1.526-3.213,2.008c-1.213,0.482-2.512,0.724-3.896,0.724H62.986z
				 M67.833,90.097v10.951h1.513c0.768,0,1.5-0.147,2.196-0.442c0.687-0.294,1.29-0.7,1.807-1.218
				c0.527-0.526,0.928-1.116,1.205-1.768c0.277-0.643,0.415-1.33,0.415-2.062c0-0.696-0.143-1.393-0.428-2.089
				c-0.295-0.669-0.688-1.249-1.178-1.74c-0.482-0.481-1.084-0.879-1.808-1.191c-0.705-0.295-1.441-0.441-2.209-0.441H67.833z"/>
			<path fill="#FFFFFF" d="M76.428,112.376c1.544,0.893,2.762,2.098,3.655,3.614c0.901,1.535,1.352,3.204,1.352,5.008
				c0,1.812-0.451,3.476-1.352,4.993c-0.893,1.526-2.111,2.731-3.655,3.615c-1.535,0.883-3.209,1.325-5.021,1.325
				c-1.803,0-3.477-0.442-5.021-1.325c-1.553-0.893-2.776-2.098-3.668-3.615c-0.901-1.518-1.352-3.182-1.352-4.993
				c0-1.804,0.451-3.473,1.352-5.008c0.893-1.508,2.115-2.713,3.668-3.614c1.544-0.884,3.217-1.325,5.021-1.325
				C73.219,111.051,74.893,111.492,76.428,112.376z M68.716,116.178c-0.83,0.518-1.486,1.214-1.968,2.089
				c-0.482,0.866-0.723,1.776-0.723,2.731s0.245,1.865,0.736,2.73c0.491,0.884,1.142,1.585,1.955,2.103
				c0.821,0.526,1.718,0.789,2.691,0.789c0.964,0,1.856-0.263,2.677-0.789c0.813-0.518,1.468-1.219,1.968-2.103
				c0.482-0.874,0.723-1.785,0.723-2.73c0-0.955-0.241-1.865-0.723-2.731s-1.134-1.562-1.955-2.089
				c-0.839-0.526-1.736-0.789-2.691-0.789C70.434,115.389,69.537,115.651,68.716,116.178z"/>
			<rect x="88.289" y="40.336" fill="#FFFFFF" width="45.805" height="8.675"/>
			<rect x="88.289" y="65.774" fill="#FFFFFF" width="45.805" height="8.676"/>
			<rect x="88.289" y="91.214" fill="#FFFFFF" width="45.805" height="8.676"/>
			<rect x="88.289" y="116.653" fill="#FFFFFF" width="45.805" height="8.675"/>
		</g>
		<g>
			<linearGradient id="SVGID_2_" gradientUnits="userSpaceOnUse" x1="226.7075" y1="83.0527" x2="360.7529" y2="83.0527">
				<stop  offset="0" style="stop-color:#64C08A"/>
				<stop  offset="0.5" style="stop-color:#00A550"/>
				<stop  offset="1" style="stop-color:#00914C"/>
			</linearGradient>
			<path fill="url(#SVGID_2_)" d="M360.753,122.658c0,15.142-12.276,27.418-27.418,27.418h-79.209
				c-15.143,0-27.418-12.276-27.418-27.418V43.449c0-15.144,12.275-27.418,27.418-27.418h79.209
				c15.142,0,27.418,12.274,27.418,27.418V122.658z"/>
			<path fill="#FFFFFF" d="M265.225,39.499h-3.655l-1.165-4.324h12.866l1.125,4.324h-4.512v14.673h-4.659V39.499z"/>
			<path fill="#FFFFFF" d="M272.428,61.498c1.544,0.892,2.762,2.097,3.655,3.614c0.901,1.535,1.352,3.204,1.352,5.007
				c0,1.813-0.451,3.477-1.352,4.994c-0.893,1.526-2.111,2.73-3.655,3.614c-1.535,0.884-3.209,1.325-5.021,1.325
				c-1.803,0-3.477-0.441-5.021-1.325c-1.553-0.893-2.776-2.098-3.668-3.614c-0.901-1.518-1.352-3.182-1.352-4.994
				c0-1.803,0.451-3.472,1.352-5.007c0.893-1.509,2.115-2.713,3.668-3.614c1.544-0.884,3.217-1.326,5.021-1.326
				C269.219,60.172,270.893,60.614,272.428,61.498z M264.716,65.3c-0.83,0.518-1.486,1.214-1.968,2.089
				c-0.482,0.865-0.723,1.775-0.723,2.73s0.245,1.865,0.736,2.731c0.491,0.884,1.142,1.584,1.955,2.102
				c0.821,0.526,1.718,0.79,2.691,0.79c0.964,0,1.856-0.264,2.677-0.79c0.813-0.518,1.468-1.218,1.968-2.102
				c0.482-0.875,0.723-1.785,0.723-2.731c0-0.955-0.241-1.865-0.723-2.73c-0.482-0.866-1.134-1.563-1.955-2.089
				c-0.839-0.526-1.736-0.79-2.691-0.79C266.434,64.51,265.537,64.773,264.716,65.3z"/>
			<path fill="#FFFFFF" d="M258.986,105.051V86.053h6.788c1.392,0,2.695,0.241,3.909,0.724c1.196,0.473,2.263,1.138,3.2,1.994
				c0.901,0.84,1.62,1.853,2.155,3.039c0.518,1.17,0.776,2.419,0.776,3.749s-0.259,2.57-0.776,3.722
				c-0.536,1.188-1.254,2.2-2.155,3.039c-0.919,0.856-1.99,1.526-3.213,2.008c-1.213,0.482-2.512,0.724-3.896,0.724H258.986z
				 M263.833,90.097v10.951h1.513c0.768,0,1.5-0.147,2.196-0.442c0.687-0.294,1.29-0.7,1.807-1.218
				c0.527-0.526,0.928-1.116,1.205-1.768c0.277-0.643,0.415-1.33,0.415-2.062c0-0.696-0.143-1.393-0.428-2.089
				c-0.295-0.669-0.688-1.249-1.178-1.74c-0.482-0.481-1.084-0.879-1.808-1.191c-0.705-0.295-1.441-0.441-2.209-0.441H263.833z"/>
			<path fill="#FFFFFF" d="M272.428,112.376c1.544,0.893,2.762,2.098,3.655,3.614c0.901,1.535,1.352,3.204,1.352,5.008
				c0,1.812-0.451,3.476-1.352,4.993c-0.893,1.526-2.111,2.731-3.655,3.615c-1.535,0.883-3.209,1.325-5.021,1.325
				c-1.803,0-3.477-0.442-5.021-1.325c-1.553-0.893-2.776-2.098-3.668-3.615c-0.901-1.518-1.352-3.182-1.352-4.993
				c0-1.804,0.451-3.473,1.352-5.008c0.893-1.508,2.115-2.713,3.668-3.614c1.544-0.884,3.217-1.325,5.021-1.325
				C269.219,111.051,270.893,111.492,272.428,112.376z M264.716,116.178c-0.83,0.518-1.486,1.214-1.968,2.089
				c-0.482,0.866-0.723,1.776-0.723,2.731s0.245,1.865,0.736,2.73c0.491,0.884,1.142,1.585,1.955,2.103
				c0.821,0.526,1.718,0.789,2.691,0.789c0.964,0,1.856-0.263,2.677-0.789c0.813-0.518,1.468-1.219,1.968-2.103
				c0.482-0.874,0.723-1.785,0.723-2.73c0-0.955-0.241-1.865-0.723-2.731s-1.134-1.562-1.955-2.089
				c-0.839-0.526-1.736-0.789-2.691-0.789C266.434,115.389,265.537,115.651,264.716,116.178z"/>
			<rect x="284.289" y="40.336" fill="#FFFFFF" width="45.805" height="8.675"/>
			<rect x="284.289" y="65.774" fill="#FFFFFF" width="45.805" height="8.676"/>
			<rect x="284.289" y="91.214" fill="#FFFFFF" width="45.805" height="8.676"/>
			<rect x="284.289" y="116.653" fill="#FFFFFF" width="45.805" height="8.675"/>
		</g>
		<g>
			<path fill="#00A651" d="M46.797,170.958h-5.976l-1.905-7.071h21.039l1.838,7.071h-7.376v23.993h-7.62V170.958z"/>
			<path fill="#00A651" d="M85.832,165.332c2.526,1.459,4.518,3.429,5.978,5.911c1.475,2.51,2.211,5.241,2.211,8.189
				c0,2.963-0.736,5.685-2.211,8.167c-1.459,2.495-3.452,4.465-5.978,5.911c-2.51,1.443-5.246,2.167-8.209,2.167
				c-2.948,0-5.686-0.723-8.209-2.167c-2.542-1.459-4.541-3.43-6-5.911c-1.473-2.481-2.211-5.204-2.211-8.167
				c0-2.948,0.739-5.679,2.211-8.189c1.459-2.466,3.458-4.436,6-5.911c2.523-1.444,5.261-2.167,8.209-2.167
				C80.586,163.165,83.322,163.888,85.832,165.332z M73.223,171.55c-1.356,0.846-2.43,1.984-3.217,3.414
				c-0.79,1.417-1.183,2.905-1.183,4.467c0,1.562,0.401,3.05,1.203,4.465c0.803,1.446,1.87,2.593,3.197,3.438
				c1.343,0.861,2.809,1.292,4.4,1.292c1.575,0,3.037-0.431,4.377-1.292c1.33-0.845,2.401-1.992,3.22-3.438
				c0.788-1.431,1.18-2.919,1.18-4.465c0-1.562-0.393-3.05-1.18-4.467c-0.79-1.415-1.854-2.553-3.198-3.414
				c-1.372-0.861-2.838-1.292-4.4-1.292C76.032,170.258,74.566,170.688,73.223,171.55z"/>
			<path fill="#00A651" d="M95.116,194.932v-31.066h11.099c2.276,0,4.407,0.393,6.393,1.183c1.957,0.772,3.7,1.861,5.232,3.262
				c1.473,1.37,2.646,3.028,3.525,4.969c0.844,1.912,1.268,3.954,1.268,6.129c0,2.175-0.424,4.204-1.268,6.087
				c-0.879,1.941-2.053,3.597-3.525,4.969c-1.504,1.401-3.255,2.497-5.255,3.284c-1.983,0.788-4.107,1.183-6.37,1.183H95.116z
				 M103.04,170.477v17.909h2.475c1.256,0,2.452-0.241,3.59-0.723c1.125-0.482,2.108-1.145,2.957-1.993
				c0.861-0.861,1.517-1.823,1.97-2.889c0.453-1.051,0.678-2.176,0.678-3.372c0-1.138-0.234-2.276-0.701-3.416
				c-0.482-1.094-1.125-2.042-1.926-2.845c-0.79-0.788-1.774-1.437-2.957-1.948c-1.153-0.482-2.356-0.723-3.612-0.723H103.04z"/>
			<path fill="#00A651" d="M148.355,165.332c2.526,1.459,4.521,3.429,5.98,5.911c1.473,2.51,2.209,5.241,2.209,8.189
				c0,2.963-0.736,5.685-2.209,8.167c-1.459,2.495-3.454,4.465-5.98,5.911c-2.508,1.443-5.243,2.167-8.207,2.167
				c-2.95,0-5.686-0.723-8.211-2.167c-2.54-1.459-4.539-3.43-5.998-5.911c-1.473-2.481-2.213-5.204-2.213-8.167
				c0-2.948,0.741-5.679,2.213-8.189c1.459-2.466,3.458-4.436,5.998-5.911c2.525-1.444,5.261-2.167,8.211-2.167
				C143.112,163.165,145.847,163.888,148.355,165.332z M135.749,171.55c-1.357,0.846-2.432,1.984-3.218,3.414
				c-0.79,1.417-1.183,2.905-1.183,4.467c0,1.562,0.402,3.05,1.201,4.465c0.803,1.446,1.87,2.593,3.2,3.438
				c1.343,0.861,2.807,1.292,4.4,1.292c1.575,0,3.035-0.431,4.378-1.292c1.33-0.845,2.401-1.992,3.217-3.438
				c0.79-1.431,1.183-2.919,1.183-4.465c0-1.562-0.393-3.05-1.183-4.467c-0.785-1.415-1.852-2.553-3.195-3.414
				c-1.374-0.861-2.838-1.292-4.4-1.292C138.555,170.258,137.092,170.688,135.749,171.55z"/>
		</g>
		<g>
			<path fill="#00A651" d="M383.315,74.592h-5.976l-1.905-7.071h21.039l1.838,7.071h-7.376v23.993h-7.62V74.592z"/>
			<path fill="#00A651" d="M422.35,68.965c2.525,1.459,4.518,3.429,5.978,5.911c1.476,2.51,2.212,5.241,2.212,8.189
				c0,2.963-0.736,5.685-2.212,8.167c-1.46,2.495-3.452,4.465-5.978,5.911c-2.51,1.443-5.246,2.167-8.209,2.167
				c-2.948,0-5.686-0.723-8.209-2.167c-2.542-1.459-4.541-3.43-6-5.911c-1.473-2.481-2.211-5.204-2.211-8.167
				c0-2.948,0.739-5.679,2.211-8.189c1.459-2.466,3.458-4.436,6-5.911c2.523-1.444,5.261-2.167,8.209-2.167
				C417.104,66.798,419.839,67.521,422.35,68.965z M409.74,75.183c-1.356,0.846-2.43,1.984-3.217,3.414
				c-0.79,1.417-1.183,2.905-1.183,4.467c0,1.562,0.401,3.05,1.203,4.465c0.803,1.446,1.87,2.593,3.197,3.438
				c1.343,0.861,2.809,1.292,4.4,1.292c1.575,0,3.037-0.431,4.377-1.292c1.33-0.845,2.401-1.992,3.22-3.438
				c0.787-1.431,1.18-2.919,1.18-4.465c0-1.562-0.393-3.05-1.18-4.467c-0.79-1.415-1.854-2.553-3.198-3.414
				c-1.372-0.861-2.838-1.292-4.4-1.292C412.549,73.891,411.083,74.322,409.74,75.183z"/>
			<path fill="#00A651" d="M431.634,98.565V67.499h11.099c2.275,0,4.406,0.393,6.393,1.183c1.957,0.772,3.699,1.861,5.232,3.262
				c1.473,1.37,2.646,3.028,3.525,4.969c0.844,1.912,1.268,3.954,1.268,6.129c0,2.175-0.424,4.204-1.268,6.087
				c-0.879,1.941-2.053,3.597-3.525,4.969c-1.504,1.401-3.256,2.497-5.255,3.284c-1.983,0.788-4.107,1.183-6.37,1.183H431.634z
				 M439.557,74.11v17.909h2.475c1.257,0,2.453-0.241,3.591-0.723c1.124-0.482,2.108-1.145,2.956-1.993
				c0.861-0.861,1.518-1.823,1.971-2.889c0.453-1.051,0.678-2.176,0.678-3.372c0-1.138-0.234-2.276-0.7-3.416
				c-0.481-1.094-1.124-2.042-1.926-2.845c-0.79-0.788-1.774-1.437-2.956-1.948c-1.154-0.482-2.356-0.723-3.613-0.723H439.557z"/>
			<path fill="#00A651" d="M484.873,68.965c2.525,1.459,4.521,3.429,5.979,5.911c1.473,2.51,2.209,5.241,2.209,8.189
				c0,2.963-0.736,5.685-2.209,8.167c-1.459,2.495-3.454,4.465-5.979,5.911c-2.508,1.443-5.244,2.167-8.207,2.167
				c-2.949,0-5.686-0.723-8.211-2.167c-2.539-1.459-4.539-3.43-5.998-5.911c-1.473-2.481-2.213-5.204-2.213-8.167
				c0-2.948,0.74-5.679,2.213-8.189c1.459-2.466,3.459-4.436,5.998-5.911c2.525-1.444,5.262-2.167,8.211-2.167
				C479.629,66.798,482.365,67.521,484.873,68.965z M472.266,75.183c-1.356,0.846-2.432,1.984-3.217,3.414
				c-0.791,1.417-1.184,2.905-1.184,4.467c0,1.562,0.402,3.05,1.201,4.465c0.803,1.446,1.869,2.593,3.199,3.438
				c1.344,0.861,2.807,1.292,4.4,1.292c1.575,0,3.035-0.431,4.378-1.292c1.329-0.845,2.401-1.992,3.218-3.438
				c0.789-1.431,1.182-2.919,1.182-4.465c0-1.562-0.393-3.05-1.182-4.467c-0.785-1.415-1.852-2.553-3.195-3.414
				c-1.375-0.861-2.838-1.292-4.4-1.292C475.072,73.891,473.609,74.322,472.266,75.183z"/>
		</g>
	</g>
	<g>
		<path fill="#FFFFFF" d="M164.753,352.303c0,15.141-12.276,27.418-27.418,27.418H58.126c-15.143,0-27.418-12.277-27.418-27.418
			v-79.209c0-15.145,12.275-27.419,27.418-27.419h79.209c15.142,0,27.418,12.274,27.418,27.419V352.303z"/>
		<path d="M69.225,269.144H65.57l-1.165-4.324h12.866l1.125,4.324h-4.512v14.673h-4.659V269.144z"/>
		<path d="M76.428,291.143c1.544,0.892,2.762,2.097,3.655,3.614c0.901,1.535,1.352,3.204,1.352,5.007
			c0,1.813-0.451,3.477-1.352,4.994c-0.893,1.526-2.111,2.73-3.655,3.614c-1.535,0.884-3.209,1.325-5.021,1.325
			c-1.803,0-3.477-0.441-5.021-1.325c-1.553-0.893-2.776-2.098-3.668-3.614c-0.901-1.518-1.352-3.182-1.352-4.994
			c0-1.803,0.451-3.472,1.352-5.007c0.893-1.509,2.115-2.713,3.668-3.614c1.544-0.884,3.217-1.326,5.021-1.326
			C73.219,289.816,74.893,290.259,76.428,291.143z M68.716,294.944c-0.83,0.518-1.486,1.214-1.968,2.089
			c-0.482,0.865-0.723,1.775-0.723,2.73s0.245,1.865,0.736,2.731c0.491,0.884,1.142,1.584,1.955,2.102
			c0.821,0.526,1.718,0.79,2.691,0.79c0.964,0,1.856-0.264,2.677-0.79c0.813-0.518,1.468-1.218,1.968-2.102
			c0.482-0.875,0.723-1.785,0.723-2.731c0-0.955-0.241-1.865-0.723-2.73c-0.482-0.866-1.134-1.563-1.955-2.089
			c-0.839-0.526-1.736-0.79-2.691-0.79C70.434,294.154,69.537,294.418,68.716,294.944z"/>
		<path d="M62.986,334.695v-18.998h6.788c1.392,0,2.695,0.241,3.909,0.724c1.196,0.473,2.263,1.138,3.2,1.994
			c0.901,0.84,1.62,1.853,2.155,3.039c0.518,1.17,0.776,2.419,0.776,3.749s-0.259,2.57-0.776,3.722
			c-0.536,1.188-1.254,2.2-2.155,3.039c-0.919,0.856-1.99,1.526-3.213,2.008c-1.213,0.482-2.512,0.724-3.896,0.724H62.986z
			 M67.833,319.741v10.951h1.513c0.768,0,1.5-0.147,2.196-0.442c0.687-0.294,1.29-0.7,1.807-1.218
			c0.527-0.526,0.928-1.116,1.205-1.768c0.277-0.643,0.415-1.33,0.415-2.062c0-0.696-0.143-1.393-0.428-2.089
			c-0.295-0.669-0.688-1.249-1.178-1.74c-0.482-0.481-1.084-0.879-1.808-1.191c-0.705-0.295-1.441-0.441-2.209-0.441H67.833z"/>
		<path d="M76.428,342.021c1.544,0.893,2.762,2.098,3.655,3.614c0.901,1.535,1.352,3.204,1.352,5.008
			c0,1.812-0.451,3.476-1.352,4.993c-0.893,1.526-2.111,2.731-3.655,3.615c-1.535,0.883-3.209,1.325-5.021,1.325
			c-1.803,0-3.477-0.442-5.021-1.325c-1.553-0.893-2.776-2.098-3.668-3.615c-0.901-1.518-1.352-3.182-1.352-4.993
			c0-1.804,0.451-3.473,1.352-5.008c0.893-1.508,2.115-2.713,3.668-3.614c1.544-0.884,3.217-1.325,5.021-1.325
			C73.219,340.695,74.893,341.137,76.428,342.021z M68.716,345.822c-0.83,0.518-1.486,1.214-1.968,2.089
			c-0.482,0.866-0.723,1.776-0.723,2.731s0.245,1.865,0.736,2.73c0.491,0.884,1.142,1.585,1.955,2.103
			c0.821,0.526,1.718,0.789,2.691,0.789c0.964,0,1.856-0.263,2.677-0.789c0.813-0.518,1.468-1.219,1.968-2.103
			c0.482-0.874,0.723-1.785,0.723-2.73c0-0.955-0.241-1.865-0.723-2.731s-1.134-1.562-1.955-2.089
			c-0.839-0.526-1.736-0.789-2.691-0.789C70.434,345.033,69.537,345.296,68.716,345.822z"/>
		<rect x="88.289" y="269.98" width="45.805" height="8.675"/>
		<rect x="88.289" y="295.419" width="45.805" height="8.676"/>
		<rect x="88.289" y="320.858" width="45.805" height="8.676"/>
		<rect x="88.289" y="346.298" width="45.805" height="8.675"/>
		<path fill="#FFFFFF" d="M360.753,352.303c0,15.141-12.276,27.418-27.418,27.418h-79.209c-15.143,0-27.418-12.277-27.418-27.418
			v-79.209c0-15.145,12.275-27.419,27.418-27.419h79.209c15.142,0,27.418,12.274,27.418,27.419V352.303z"/>
		<path d="M265.225,269.144h-3.655l-1.165-4.324h12.866l1.125,4.324h-4.512v14.673h-4.659V269.144z"/>
		<path d="M272.428,291.143c1.544,0.892,2.762,2.097,3.655,3.614c0.901,1.535,1.352,3.204,1.352,5.007
			c0,1.813-0.451,3.477-1.352,4.994c-0.893,1.526-2.111,2.73-3.655,3.614c-1.535,0.884-3.209,1.325-5.021,1.325
			c-1.803,0-3.477-0.441-5.021-1.325c-1.553-0.893-2.776-2.098-3.668-3.614c-0.901-1.518-1.352-3.182-1.352-4.994
			c0-1.803,0.451-3.472,1.352-5.007c0.893-1.509,2.115-2.713,3.668-3.614c1.544-0.884,3.217-1.326,5.021-1.326
			C269.219,289.816,270.893,290.259,272.428,291.143z M264.716,294.944c-0.83,0.518-1.486,1.214-1.968,2.089
			c-0.482,0.865-0.723,1.775-0.723,2.73s0.245,1.865,0.736,2.731c0.491,0.884,1.142,1.584,1.955,2.102
			c0.821,0.526,1.718,0.79,2.691,0.79c0.964,0,1.856-0.264,2.677-0.79c0.813-0.518,1.468-1.218,1.968-2.102
			c0.482-0.875,0.723-1.785,0.723-2.731c0-0.955-0.241-1.865-0.723-2.73c-0.482-0.866-1.134-1.563-1.955-2.089
			c-0.839-0.526-1.736-0.79-2.691-0.79C266.434,294.154,265.537,294.418,264.716,294.944z"/>
		<path d="M258.986,334.695v-18.998h6.788c1.392,0,2.695,0.241,3.909,0.724c1.196,0.473,2.263,1.138,3.2,1.994
			c0.901,0.84,1.62,1.853,2.155,3.039c0.518,1.17,0.776,2.419,0.776,3.749s-0.259,2.57-0.776,3.722
			c-0.536,1.188-1.254,2.2-2.155,3.039c-0.919,0.856-1.99,1.526-3.213,2.008c-1.213,0.482-2.512,0.724-3.896,0.724H258.986z
			 M263.833,319.741v10.951h1.513c0.768,0,1.5-0.147,2.196-0.442c0.687-0.294,1.29-0.7,1.807-1.218
			c0.527-0.526,0.928-1.116,1.205-1.768c0.277-0.643,0.415-1.33,0.415-2.062c0-0.696-0.143-1.393-0.428-2.089
			c-0.295-0.669-0.688-1.249-1.178-1.74c-0.482-0.481-1.084-0.879-1.808-1.191c-0.705-0.295-1.441-0.441-2.209-0.441H263.833z"/>
		<path d="M272.428,342.021c1.544,0.893,2.762,2.098,3.655,3.614c0.901,1.535,1.352,3.204,1.352,5.008
			c0,1.812-0.451,3.476-1.352,4.993c-0.893,1.526-2.111,2.731-3.655,3.615c-1.535,0.883-3.209,1.325-5.021,1.325
			c-1.803,0-3.477-0.442-5.021-1.325c-1.553-0.893-2.776-2.098-3.668-3.615c-0.901-1.518-1.352-3.182-1.352-4.993
			c0-1.804,0.451-3.473,1.352-5.008c0.893-1.508,2.115-2.713,3.668-3.614c1.544-0.884,3.217-1.325,5.021-1.325
			C269.219,340.695,270.893,341.137,272.428,342.021z M264.716,345.822c-0.83,0.518-1.486,1.214-1.968,2.089
			c-0.482,0.866-0.723,1.776-0.723,2.731s0.245,1.865,0.736,2.73c0.491,0.884,1.142,1.585,1.955,2.103
			c0.821,0.526,1.718,0.789,2.691,0.789c0.964,0,1.856-0.263,2.677-0.789c0.813-0.518,1.468-1.219,1.968-2.103
			c0.482-0.874,0.723-1.785,0.723-2.73c0-0.955-0.241-1.865-0.723-2.731s-1.134-1.562-1.955-2.089
			c-0.839-0.526-1.736-0.789-2.691-0.789C266.434,345.033,265.537,345.296,264.716,345.822z"/>
		<rect x="284.289" y="269.98" width="45.805" height="8.675"/>
		<rect x="284.289" y="295.419" width="45.805" height="8.676"/>
		<rect x="284.289" y="320.858" width="45.805" height="8.676"/>
		<rect x="284.289" y="346.298" width="45.805" height="8.675"/>
		<g>
			<path fill="#FFFFFF" d="M46.797,400.604h-5.976l-1.905-7.071h21.039l1.838,7.071h-7.376v23.992h-7.62V400.604z"/>
			<path fill="#FFFFFF" d="M85.832,394.977c2.526,1.459,4.518,3.429,5.978,5.91c1.475,2.51,2.211,5.241,2.211,8.189
				c0,2.963-0.736,5.685-2.211,8.166c-1.459,2.494-3.452,4.465-5.978,5.91c-2.51,1.443-5.246,2.167-8.209,2.167
				c-2.948,0-5.686-0.724-8.209-2.167c-2.542-1.459-4.541-3.43-6-5.91c-1.473-2.481-2.211-5.203-2.211-8.166
				c0-2.948,0.739-5.68,2.211-8.189c1.459-2.466,3.458-4.436,6-5.91c2.523-1.444,5.261-2.168,8.209-2.168
				C80.586,392.809,83.322,393.532,85.832,394.977z M73.223,401.194c-1.356,0.846-2.43,1.983-3.217,3.414
				c-0.79,1.417-1.183,2.905-1.183,4.468c0,1.561,0.401,3.049,1.203,4.465c0.803,1.445,1.87,2.592,3.197,3.438
				c1.343,0.861,2.809,1.292,4.4,1.292c1.575,0,3.037-0.431,4.377-1.292c1.33-0.846,2.401-1.992,3.22-3.438
				c0.788-1.432,1.18-2.92,1.18-4.465c0-1.563-0.393-3.051-1.18-4.468c-0.79-1.415-1.854-2.553-3.198-3.414
				c-1.372-0.861-2.838-1.292-4.4-1.292C76.032,399.902,74.566,400.333,73.223,401.194z"/>
			<path fill="#FFFFFF" d="M95.116,424.576V393.51h11.099c2.276,0,4.407,0.393,6.393,1.183c1.957,0.772,3.7,1.86,5.232,3.263
				c1.473,1.369,2.646,3.027,3.525,4.969c0.844,1.912,1.268,3.953,1.268,6.129s-0.424,4.204-1.268,6.088
				c-0.879,1.941-2.053,3.596-3.525,4.969c-1.504,1.401-3.255,2.496-5.255,3.284c-1.983,0.788-4.107,1.183-6.37,1.183H95.116z
				 M103.04,400.121v17.908h2.475c1.256,0,2.452-0.24,3.59-0.723c1.125-0.482,2.108-1.145,2.957-1.992
				c0.861-0.861,1.517-1.823,1.97-2.89c0.453-1.052,0.678-2.176,0.678-3.372c0-1.138-0.234-2.275-0.701-3.416
				c-0.482-1.094-1.125-2.041-1.926-2.845c-0.79-0.788-1.774-1.437-2.957-1.948c-1.153-0.481-2.356-0.723-3.612-0.723H103.04z"/>
			<path fill="#FFFFFF" d="M148.355,394.977c2.526,1.459,4.521,3.429,5.98,5.91c1.473,2.51,2.209,5.241,2.209,8.189
				c0,2.963-0.736,5.685-2.209,8.166c-1.459,2.494-3.454,4.465-5.98,5.91c-2.508,1.443-5.243,2.167-8.207,2.167
				c-2.95,0-5.686-0.724-8.211-2.167c-2.54-1.459-4.539-3.43-5.998-5.91c-1.473-2.481-2.213-5.203-2.213-8.166
				c0-2.948,0.741-5.68,2.213-8.189c1.459-2.466,3.458-4.436,5.998-5.91c2.525-1.444,5.261-2.168,8.211-2.168
				C143.112,392.809,145.847,393.532,148.355,394.977z M135.749,401.194c-1.357,0.846-2.432,1.983-3.218,3.414
				c-0.79,1.417-1.183,2.905-1.183,4.468c0,1.561,0.402,3.049,1.201,4.465c0.803,1.445,1.87,2.592,3.2,3.438
				c1.343,0.861,2.807,1.292,4.4,1.292c1.575,0,3.035-0.431,4.378-1.292c1.33-0.846,2.401-1.992,3.217-3.438
				c0.79-1.432,1.183-2.92,1.183-4.465c0-1.563-0.393-3.051-1.183-4.468c-0.785-1.415-1.852-2.553-3.195-3.414
				c-1.374-0.861-2.838-1.292-4.4-1.292C138.555,399.902,137.092,400.333,135.749,401.194z"/>
		</g>
		<g>
			<path fill="#FFFFFF" d="M383.315,304.236h-5.976l-1.905-7.07h21.039l1.838,7.07h-7.376v23.993h-7.62V304.236z"/>
			<path fill="#FFFFFF" d="M422.35,298.609c2.525,1.459,4.518,3.43,5.978,5.91c1.476,2.511,2.212,5.242,2.212,8.189
				c0,2.963-0.736,5.686-2.212,8.166c-1.46,2.495-3.452,4.465-5.978,5.911c-2.51,1.443-5.246,2.167-8.209,2.167
				c-2.948,0-5.686-0.724-8.209-2.167c-2.542-1.46-4.541-3.43-6-5.911c-1.473-2.48-2.211-5.203-2.211-8.166
				c0-2.947,0.739-5.679,2.211-8.189c1.459-2.465,3.458-4.436,6-5.91c2.523-1.443,5.261-2.167,8.209-2.167
				C417.104,296.442,419.839,297.166,422.35,298.609z M409.74,304.828c-1.356,0.846-2.43,1.983-3.217,3.414
				c-0.79,1.416-1.183,2.904-1.183,4.467c0,1.562,0.401,3.05,1.203,4.465c0.803,1.445,1.87,2.593,3.197,3.438
				c1.343,0.861,2.809,1.293,4.4,1.293c1.575,0,3.037-0.432,4.377-1.293c1.33-0.845,2.401-1.992,3.22-3.438
				c0.787-1.431,1.18-2.919,1.18-4.465c0-1.563-0.393-3.051-1.18-4.467c-0.79-1.415-1.854-2.553-3.198-3.414
				c-1.372-0.861-2.838-1.293-4.4-1.293C412.549,303.535,411.083,303.967,409.74,304.828z"/>
			<path fill="#FFFFFF" d="M431.634,328.209v-31.066h11.099c2.275,0,4.406,0.394,6.393,1.184c1.957,0.771,3.699,1.86,5.232,3.262
				c1.473,1.37,2.646,3.027,3.525,4.969c0.844,1.912,1.268,3.954,1.268,6.13c0,2.175-0.424,4.204-1.268,6.087
				c-0.879,1.941-2.053,3.597-3.525,4.969c-1.504,1.402-3.256,2.497-5.255,3.285c-1.983,0.787-4.107,1.182-6.37,1.182H431.634z
				 M439.557,303.754v17.909h2.475c1.257,0,2.453-0.241,3.591-0.724c1.124-0.481,2.108-1.145,2.956-1.992
				c0.861-0.861,1.518-1.822,1.971-2.889c0.453-1.052,0.678-2.176,0.678-3.372c0-1.138-0.234-2.276-0.7-3.416
				c-0.481-1.094-1.124-2.042-1.926-2.845c-0.79-0.788-1.774-1.438-2.956-1.948c-1.154-0.481-2.356-0.724-3.613-0.724H439.557z"/>
			<path fill="#FFFFFF" d="M484.873,298.609c2.525,1.459,4.521,3.43,5.979,5.91c1.473,2.511,2.209,5.242,2.209,8.189
				c0,2.963-0.736,5.686-2.209,8.166c-1.459,2.495-3.454,4.465-5.979,5.911c-2.508,1.443-5.244,2.167-8.207,2.167
				c-2.949,0-5.686-0.724-8.211-2.167c-2.539-1.46-4.539-3.43-5.998-5.911c-1.473-2.48-2.213-5.203-2.213-8.166
				c0-2.947,0.74-5.679,2.213-8.189c1.459-2.465,3.459-4.436,5.998-5.91c2.525-1.443,5.262-2.167,8.211-2.167
				C479.629,296.442,482.365,297.166,484.873,298.609z M472.266,304.828c-1.356,0.846-2.432,1.983-3.217,3.414
				c-0.791,1.416-1.184,2.904-1.184,4.467c0,1.562,0.402,3.05,1.201,4.465c0.803,1.445,1.869,2.593,3.199,3.438
				c1.344,0.861,2.807,1.293,4.4,1.293c1.575,0,3.035-0.432,4.378-1.293c1.329-0.845,2.401-1.992,3.218-3.438
				c0.789-1.431,1.182-2.919,1.182-4.465c0-1.563-0.393-3.051-1.182-4.467c-0.785-1.415-1.852-2.553-3.195-3.414
				c-1.375-0.861-2.838-1.293-4.4-1.293C475.072,303.535,473.609,303.967,472.266,304.828z"/>
		</g>
	</g>
	<path d="M164.753,581.947c0,15.141-12.276,27.418-27.418,27.418H58.126c-15.143,0-27.418-12.277-27.418-27.418v-79.209
		c0-15.145,12.275-27.419,27.418-27.419h79.209c15.142,0,27.418,12.274,27.418,27.419V581.947z"/>
	<path fill="#FFFFFF" d="M69.225,498.788H65.57l-1.165-4.324h12.866l1.125,4.324h-4.512v14.673h-4.659V498.788z"/>
	<path fill="#FFFFFF" d="M76.428,520.787c1.544,0.892,2.762,2.097,3.655,3.614c0.901,1.535,1.352,3.204,1.352,5.007
		c0,1.813-0.451,3.477-1.352,4.994c-0.893,1.526-2.111,2.73-3.655,3.614c-1.535,0.884-3.209,1.325-5.021,1.325
		c-1.803,0-3.477-0.441-5.021-1.325c-1.553-0.893-2.776-2.098-3.668-3.614c-0.901-1.518-1.352-3.182-1.352-4.994
		c0-1.803,0.451-3.472,1.352-5.007c0.893-1.509,2.115-2.713,3.668-3.614c1.544-0.884,3.217-1.326,5.021-1.326
		C73.219,519.461,74.893,519.903,76.428,520.787z M68.716,524.589c-0.83,0.518-1.486,1.214-1.968,2.089
		c-0.482,0.865-0.723,1.775-0.723,2.73s0.245,1.865,0.736,2.731c0.491,0.884,1.142,1.584,1.955,2.102
		c0.821,0.526,1.718,0.79,2.691,0.79c0.964,0,1.856-0.264,2.677-0.79c0.813-0.518,1.468-1.218,1.968-2.102
		c0.482-0.875,0.723-1.785,0.723-2.731c0-0.955-0.241-1.865-0.723-2.73c-0.482-0.866-1.134-1.563-1.955-2.089
		c-0.839-0.526-1.736-0.79-2.691-0.79C70.434,523.799,69.537,524.063,68.716,524.589z"/>
	<path fill="#FFFFFF" d="M62.986,564.34v-18.998h6.788c1.392,0,2.695,0.241,3.909,0.724c1.196,0.473,2.263,1.138,3.2,1.994
		c0.901,0.84,1.62,1.853,2.155,3.039c0.518,1.17,0.776,2.419,0.776,3.749s-0.259,2.57-0.776,3.722
		c-0.536,1.188-1.254,2.2-2.155,3.039c-0.919,0.856-1.99,1.526-3.213,2.008c-1.213,0.482-2.512,0.724-3.896,0.724H62.986z
		 M67.833,549.386v10.951h1.513c0.768,0,1.5-0.147,2.196-0.442c0.687-0.294,1.29-0.7,1.807-1.218
		c0.527-0.526,0.928-1.116,1.205-1.768c0.277-0.643,0.415-1.33,0.415-2.062c0-0.696-0.143-1.393-0.428-2.089
		c-0.295-0.669-0.688-1.249-1.178-1.74c-0.482-0.481-1.084-0.879-1.808-1.191c-0.705-0.295-1.441-0.441-2.209-0.441H67.833z"/>
	<path fill="#FFFFFF" d="M76.428,571.665c1.544,0.893,2.762,2.098,3.655,3.614c0.901,1.535,1.352,3.204,1.352,5.008
		c0,1.812-0.451,3.476-1.352,4.993c-0.893,1.526-2.111,2.731-3.655,3.615c-1.535,0.883-3.209,1.325-5.021,1.325
		c-1.803,0-3.477-0.442-5.021-1.325c-1.553-0.893-2.776-2.098-3.668-3.615c-0.901-1.518-1.352-3.182-1.352-4.993
		c0-1.804,0.451-3.473,1.352-5.008c0.893-1.508,2.115-2.713,3.668-3.614c1.544-0.884,3.217-1.325,5.021-1.325
		C73.219,570.34,74.893,570.781,76.428,571.665z M68.716,575.467c-0.83,0.518-1.486,1.214-1.968,2.089
		c-0.482,0.866-0.723,1.776-0.723,2.731s0.245,1.865,0.736,2.73c0.491,0.884,1.142,1.585,1.955,2.103
		c0.821,0.526,1.718,0.789,2.691,0.789c0.964,0,1.856-0.263,2.677-0.789c0.813-0.518,1.468-1.219,1.968-2.103
		c0.482-0.874,0.723-1.785,0.723-2.73c0-0.955-0.241-1.865-0.723-2.731s-1.134-1.562-1.955-2.089
		c-0.839-0.526-1.736-0.789-2.691-0.789C70.434,574.678,69.537,574.94,68.716,575.467z"/>
	<rect x="88.289" y="499.625" fill="#FFFFFF" width="45.805" height="8.675"/>
	<rect x="88.289" y="525.063" fill="#FFFFFF" width="45.805" height="8.676"/>
	<rect x="88.289" y="550.503" fill="#FFFFFF" width="45.805" height="8.676"/>
	<rect x="88.289" y="575.942" fill="#FFFFFF" width="45.805" height="8.675"/>
	<path d="M360.753,581.947c0,15.141-12.276,27.418-27.418,27.418h-79.209c-15.143,0-27.418-12.277-27.418-27.418v-79.209
		c0-15.145,12.275-27.419,27.418-27.419h79.209c15.142,0,27.418,12.274,27.418,27.419V581.947z"/>
	<path fill="#FFFFFF" d="M265.225,498.788h-3.655l-1.165-4.324h12.866l1.125,4.324h-4.512v14.673h-4.659V498.788z"/>
	<path fill="#FFFFFF" d="M272.428,520.787c1.544,0.892,2.762,2.097,3.655,3.614c0.901,1.535,1.352,3.204,1.352,5.007
		c0,1.813-0.451,3.477-1.352,4.994c-0.893,1.526-2.111,2.73-3.655,3.614c-1.535,0.884-3.209,1.325-5.021,1.325
		c-1.803,0-3.477-0.441-5.021-1.325c-1.553-0.893-2.776-2.098-3.668-3.614c-0.901-1.518-1.352-3.182-1.352-4.994
		c0-1.803,0.451-3.472,1.352-5.007c0.893-1.509,2.115-2.713,3.668-3.614c1.544-0.884,3.217-1.326,5.021-1.326
		C269.219,519.461,270.893,519.903,272.428,520.787z M264.716,524.589c-0.83,0.518-1.486,1.214-1.968,2.089
		c-0.482,0.865-0.723,1.775-0.723,2.73s0.245,1.865,0.736,2.731c0.491,0.884,1.142,1.584,1.955,2.102
		c0.821,0.526,1.718,0.79,2.691,0.79c0.964,0,1.856-0.264,2.677-0.79c0.813-0.518,1.468-1.218,1.968-2.102
		c0.482-0.875,0.723-1.785,0.723-2.731c0-0.955-0.241-1.865-0.723-2.73c-0.482-0.866-1.134-1.563-1.955-2.089
		c-0.839-0.526-1.736-0.79-2.691-0.79C266.434,523.799,265.537,524.063,264.716,524.589z"/>
	<path fill="#FFFFFF" d="M258.986,564.34v-18.998h6.788c1.392,0,2.695,0.241,3.909,0.724c1.196,0.473,2.263,1.138,3.2,1.994
		c0.901,0.84,1.62,1.853,2.155,3.039c0.518,1.17,0.776,2.419,0.776,3.749s-0.259,2.57-0.776,3.722
		c-0.536,1.188-1.254,2.2-2.155,3.039c-0.919,0.856-1.99,1.526-3.213,2.008c-1.213,0.482-2.512,0.724-3.896,0.724H258.986z
		 M263.833,549.386v10.951h1.513c0.768,0,1.5-0.147,2.196-0.442c0.687-0.294,1.29-0.7,1.807-1.218
		c0.527-0.526,0.928-1.116,1.205-1.768c0.277-0.643,0.415-1.33,0.415-2.062c0-0.696-0.143-1.393-0.428-2.089
		c-0.295-0.669-0.688-1.249-1.178-1.74c-0.482-0.481-1.084-0.879-1.808-1.191c-0.705-0.295-1.441-0.441-2.209-0.441H263.833z"/>
	<path fill="#FFFFFF" d="M272.428,571.665c1.544,0.893,2.762,2.098,3.655,3.614c0.901,1.535,1.352,3.204,1.352,5.008
		c0,1.812-0.451,3.476-1.352,4.993c-0.893,1.526-2.111,2.731-3.655,3.615c-1.535,0.883-3.209,1.325-5.021,1.325
		c-1.803,0-3.477-0.442-5.021-1.325c-1.553-0.893-2.776-2.098-3.668-3.615c-0.901-1.518-1.352-3.182-1.352-4.993
		c0-1.804,0.451-3.473,1.352-5.008c0.893-1.508,2.115-2.713,3.668-3.614c1.544-0.884,3.217-1.325,5.021-1.325
		C269.219,570.34,270.893,570.781,272.428,571.665z M264.716,575.467c-0.83,0.518-1.486,1.214-1.968,2.089
		c-0.482,0.866-0.723,1.776-0.723,2.731s0.245,1.865,0.736,2.73c0.491,0.884,1.142,1.585,1.955,2.103
		c0.821,0.526,1.718,0.789,2.691,0.789c0.964,0,1.856-0.263,2.677-0.789c0.813-0.518,1.468-1.219,1.968-2.103
		c0.482-0.874,0.723-1.785,0.723-2.73c0-0.955-0.241-1.865-0.723-2.731s-1.134-1.562-1.955-2.089
		c-0.839-0.526-1.736-0.789-2.691-0.789C266.434,574.678,265.537,574.94,264.716,575.467z"/>
	<rect x="284.289" y="499.625" fill="#FFFFFF" width="45.805" height="8.675"/>
	<rect x="284.289" y="525.063" fill="#FFFFFF" width="45.805" height="8.676"/>
	<rect x="284.289" y="550.503" fill="#FFFFFF" width="45.805" height="8.676"/>
	<rect x="284.289" y="575.942" fill="#FFFFFF" width="45.805" height="8.675"/>
	<g>
		<path d="M46.797,630.248h-5.976l-1.905-7.071h21.039l1.838,7.071h-7.376v23.992h-7.62V630.248z"/>
		<path d="M85.832,624.621c2.526,1.459,4.518,3.429,5.978,5.91c1.475,2.51,2.211,5.241,2.211,8.189c0,2.963-0.736,5.685-2.211,8.166
			c-1.459,2.494-3.452,4.465-5.978,5.91c-2.51,1.443-5.246,2.167-8.209,2.167c-2.948,0-5.686-0.724-8.209-2.167
			c-2.542-1.459-4.541-3.43-6-5.91c-1.473-2.481-2.211-5.203-2.211-8.166c0-2.948,0.739-5.68,2.211-8.189
			c1.459-2.466,3.458-4.436,6-5.91c2.523-1.444,5.261-2.168,8.209-2.168C80.586,622.453,83.322,623.177,85.832,624.621z
			 M73.223,630.839c-1.356,0.846-2.43,1.983-3.217,3.414c-0.79,1.417-1.183,2.905-1.183,4.468c0,1.561,0.401,3.049,1.203,4.465
			c0.803,1.445,1.87,2.592,3.197,3.438c1.343,0.861,2.809,1.292,4.4,1.292c1.575,0,3.037-0.431,4.377-1.292
			c1.33-0.846,2.401-1.992,3.22-3.438c0.788-1.432,1.18-2.92,1.18-4.465c0-1.563-0.393-3.051-1.18-4.468
			c-0.79-1.415-1.854-2.553-3.198-3.414c-1.372-0.861-2.838-1.292-4.4-1.292C76.032,629.547,74.566,629.978,73.223,630.839z"/>
		<path d="M95.116,654.221v-31.066h11.099c2.276,0,4.407,0.393,6.393,1.183c1.957,0.772,3.7,1.86,5.232,3.263
			c1.473,1.369,2.646,3.027,3.525,4.969c0.844,1.912,1.268,3.953,1.268,6.129s-0.424,4.204-1.268,6.088
			c-0.879,1.941-2.053,3.596-3.525,4.969c-1.504,1.401-3.255,2.496-5.255,3.284c-1.983,0.788-4.107,1.183-6.37,1.183H95.116z
			 M103.04,629.766v17.908h2.475c1.256,0,2.452-0.24,3.59-0.723c1.125-0.482,2.108-1.145,2.957-1.992
			c0.861-0.861,1.517-1.823,1.97-2.89c0.453-1.052,0.678-2.176,0.678-3.372c0-1.138-0.234-2.275-0.701-3.416
			c-0.482-1.094-1.125-2.041-1.926-2.845c-0.79-0.788-1.774-1.437-2.957-1.948c-1.153-0.481-2.356-0.723-3.612-0.723H103.04z"/>
		<path d="M148.355,624.621c2.526,1.459,4.521,3.429,5.98,5.91c1.473,2.51,2.209,5.241,2.209,8.189c0,2.963-0.736,5.685-2.209,8.166
			c-1.459,2.494-3.454,4.465-5.98,5.91c-2.508,1.443-5.243,2.167-8.207,2.167c-2.95,0-5.686-0.724-8.211-2.167
			c-2.54-1.459-4.539-3.43-5.998-5.91c-1.473-2.481-2.213-5.203-2.213-8.166c0-2.948,0.741-5.68,2.213-8.189
			c1.459-2.466,3.458-4.436,5.998-5.91c2.525-1.444,5.261-2.168,8.211-2.168C143.112,622.453,145.847,623.177,148.355,624.621z
			 M135.749,630.839c-1.357,0.846-2.432,1.983-3.218,3.414c-0.79,1.417-1.183,2.905-1.183,4.468c0,1.561,0.402,3.049,1.201,4.465
			c0.803,1.445,1.87,2.592,3.2,3.438c1.343,0.861,2.807,1.292,4.4,1.292c1.575,0,3.035-0.431,4.378-1.292
			c1.33-0.846,2.401-1.992,3.217-3.438c0.79-1.432,1.183-2.92,1.183-4.465c0-1.563-0.393-3.051-1.183-4.468
			c-0.785-1.415-1.852-2.553-3.195-3.414c-1.374-0.861-2.838-1.292-4.4-1.292C138.555,629.547,137.092,629.978,135.749,630.839z"/>
	</g>
	<g>
		<path d="M383.315,533.881h-5.976l-1.905-7.07h21.039l1.838,7.07h-7.376v23.993h-7.62V533.881z"/>
		<path d="M422.35,528.254c2.525,1.459,4.518,3.43,5.978,5.91c1.476,2.511,2.212,5.242,2.212,8.189c0,2.963-0.736,5.686-2.212,8.166
			c-1.46,2.495-3.452,4.465-5.978,5.911c-2.51,1.443-5.246,2.167-8.209,2.167c-2.948,0-5.686-0.724-8.209-2.167
			c-2.542-1.46-4.541-3.43-6-5.911c-1.473-2.48-2.211-5.203-2.211-8.166c0-2.947,0.739-5.679,2.211-8.189
			c1.459-2.465,3.458-4.436,6-5.91c2.523-1.443,5.261-2.167,8.209-2.167C417.104,526.087,419.839,526.811,422.35,528.254z
			 M409.74,534.473c-1.356,0.846-2.43,1.983-3.217,3.414c-0.79,1.416-1.183,2.904-1.183,4.467c0,1.562,0.401,3.05,1.203,4.465
			c0.803,1.445,1.87,2.593,3.197,3.438c1.343,0.861,2.809,1.293,4.4,1.293c1.575,0,3.037-0.432,4.377-1.293
			c1.33-0.845,2.401-1.992,3.22-3.438c0.787-1.431,1.18-2.919,1.18-4.465c0-1.563-0.393-3.051-1.18-4.467
			c-0.79-1.415-1.854-2.553-3.198-3.414c-1.372-0.861-2.838-1.293-4.4-1.293C412.549,533.18,411.083,533.611,409.74,534.473z"/>
		<path d="M431.634,557.854v-31.066h11.099c2.275,0,4.406,0.394,6.393,1.184c1.957,0.771,3.699,1.86,5.232,3.262
			c1.473,1.37,2.646,3.027,3.525,4.969c0.844,1.912,1.268,3.954,1.268,6.13c0,2.175-0.424,4.204-1.268,6.087
			c-0.879,1.941-2.053,3.597-3.525,4.969c-1.504,1.402-3.256,2.497-5.255,3.285c-1.983,0.787-4.107,1.182-6.37,1.182H431.634z
			 M439.557,533.398v17.909h2.475c1.257,0,2.453-0.241,3.591-0.724c1.124-0.481,2.108-1.145,2.956-1.992
			c0.861-0.861,1.518-1.822,1.971-2.889c0.453-1.052,0.678-2.176,0.678-3.372c0-1.138-0.234-2.276-0.7-3.416
			c-0.481-1.094-1.124-2.042-1.926-2.845c-0.79-0.788-1.774-1.438-2.956-1.948c-1.154-0.481-2.356-0.724-3.613-0.724H439.557z"/>
		<path d="M484.873,528.254c2.525,1.459,4.521,3.43,5.979,5.91c1.473,2.511,2.209,5.242,2.209,8.189
			c0,2.963-0.736,5.686-2.209,8.166c-1.459,2.495-3.454,4.465-5.979,5.911c-2.508,1.443-5.244,2.167-8.207,2.167
			c-2.949,0-5.686-0.724-8.211-2.167c-2.539-1.46-4.539-3.43-5.998-5.911c-1.473-2.48-2.213-5.203-2.213-8.166
			c0-2.947,0.74-5.679,2.213-8.189c1.459-2.465,3.459-4.436,5.998-5.91c2.525-1.443,5.262-2.167,8.211-2.167
			C479.629,526.087,482.365,526.811,484.873,528.254z M472.266,534.473c-1.356,0.846-2.432,1.983-3.217,3.414
			c-0.791,1.416-1.184,2.904-1.184,4.467c0,1.562,0.402,3.05,1.201,4.465c0.803,1.445,1.869,2.593,3.199,3.438
			c1.344,0.861,2.807,1.293,4.4,1.293c1.575,0,3.035-0.432,4.378-1.293c1.329-0.845,2.401-1.992,3.218-3.438
			c0.789-1.431,1.182-2.919,1.182-4.465c0-1.563-0.393-3.051-1.182-4.467c-0.785-1.415-1.852-2.553-3.195-3.414
			c-1.375-0.861-2.838-1.293-4.4-1.293C475.072,533.18,473.609,533.611,472.266,534.473z"/>
	</g>
</g>
</svg>
